<svg xmlns="http://www.w3.org/2000/svg" xmlns:xlink="http://www.w3.org/1999/xlink" width="512" zoomAndPan="magnify" viewBox="0 0 384 383.999986" height="512" preserveAspectRatio="xMidYMid meet" version="1.0"><defs><g/></defs><g fill="#ffffff" fill-opacity="1"><g transform="translate(1.351326, 270.644187)"><g><path d="M 41.234375 0 C 31.859375 0 24.203125 -2.109375 18.265625 -6.328125 C 12.335938 -10.546875 7.925781 -16.128906 5.03125 -23.078125 C 2.144531 -30.023438 0.703125 -37.5625 0.703125 -45.6875 C 0.703125 -53.96875 2.066406 -62.285156 4.796875 -70.640625 C 7.535156 -78.992188 11.476562 -86.6875 16.625 -93.71875 C 21.78125 -100.75 28.03125 -106.410156 35.375 -110.703125 C 42.71875 -114.992188 51 -117.140625 60.21875 -117.140625 C 71.457031 -117.140625 79.65625 -114.25 84.8125 -108.46875 C 89.96875 -102.695312 92.546875 -95.984375 92.546875 -88.328125 C 92.546875 -81.609375 91.253906 -76.179688 88.671875 -72.046875 C 86.097656 -67.910156 82.972656 -64.90625 79.296875 -63.03125 C 75.628906 -61.15625 72.082031 -60.21875 68.65625 -60.21875 C 64.59375 -60.21875 61.546875 -60.921875 59.515625 -62.328125 C 57.484375 -63.734375 56.46875 -65.21875 56.46875 -66.78125 C 56.46875 -68.1875 56.894531 -69.351562 57.75 -70.28125 C 58.613281 -71.21875 59.515625 -72.390625 60.453125 -73.796875 C 61.390625 -75.203125 61.859375 -77.3125 61.859375 -80.125 C 61.859375 -82.3125 61.15625 -84.222656 59.75 -85.859375 C 58.34375 -87.503906 55.84375 -88.328125 52.25 -88.328125 C 46.9375 -88.328125 42.832031 -86.019531 39.9375 -81.40625 C 37.050781 -76.800781 35.609375 -71.535156 35.609375 -65.609375 C 35.609375 -59.359375 37.25 -54.28125 40.53125 -50.375 C 43.8125 -46.46875 48.066406 -43.8125 53.296875 -42.40625 C 58.535156 -41 64.195312 -40.84375 70.28125 -41.9375 C 76.375 -43.03125 82.390625 -45.410156 88.328125 -49.078125 C 94.265625 -52.753906 99.421875 -57.796875 103.796875 -64.203125 C 105.046875 -66.078125 106.6875 -66.738281 108.71875 -66.1875 C 110.75 -65.644531 112.425781 -64.59375 113.75 -63.03125 C 115.082031 -61.46875 115.28125 -59.90625 114.34375 -58.34375 C 104.03125 -39.28125 92.703125 -24.789062 80.359375 -14.875 C 68.023438 -4.957031 54.984375 0 41.234375 0 Z M 41.234375 0 "/></g></g></g><g fill="#ffffff" fill-opacity="1"><g transform="translate(99.754028, 270.644187)"><g><path d="M 15.9375 0 C 9.21875 0 4.488281 -2.300781 1.75 -6.90625 C -0.976562 -11.519531 -2.34375 -17.257812 -2.34375 -24.125 C -2.34375 -30.0625 -1.597656 -36.546875 -0.109375 -43.578125 C 1.367188 -50.609375 3.28125 -57.484375 5.625 -64.203125 C 13.59375 -87.003906 20.347656 -106.132812 25.890625 -121.59375 C 31.429688 -137.0625 36.78125 -148.738281 41.9375 -156.625 C 47.09375 -164.507812 52.796875 -168.453125 59.046875 -168.453125 C 63.890625 -168.453125 66.894531 -166.65625 68.0625 -163.0625 C 69.238281 -159.476562 68.109375 -153.9375 64.671875 -146.4375 C 61.703125 -139.71875 58.457031 -133.191406 54.9375 -126.859375 C 51.425781 -120.535156 48.96875 -114.644531 47.5625 -109.1875 C 46.3125 -104.34375 46.425781 -101.609375 47.90625 -100.984375 C 49.394531 -100.359375 51.390625 -101.296875 53.890625 -103.796875 C 58.265625 -108.015625 62.789062 -111.289062 67.46875 -113.625 C 72.15625 -115.96875 77.078125 -117.140625 82.234375 -117.140625 C 89.421875 -117.140625 94.734375 -115.03125 98.171875 -110.8125 C 101.609375 -106.601562 103.328125 -101.53125 103.328125 -95.59375 C 103.328125 -91.53125 102.703125 -87.816406 101.453125 -84.453125 C 100.203125 -81.097656 98.953125 -77.820312 97.703125 -74.625 C 96.453125 -71.425781 95.828125 -67.875 95.828125 -63.96875 C 95.828125 -56.15625 99.421875 -52.25 106.609375 -52.25 C 110.203125 -52.25 113.207031 -53.378906 115.625 -55.640625 C 118.039062 -57.910156 120.421875 -60.765625 122.765625 -64.203125 C 124.015625 -66.078125 125.65625 -66.738281 127.6875 -66.1875 C 129.71875 -65.644531 131.394531 -64.59375 132.71875 -63.03125 C 134.050781 -61.46875 134.25 -59.90625 133.3125 -58.34375 C 131.75 -55.84375 129.875 -52.207031 127.6875 -47.4375 C 125.5 -42.675781 122.882812 -37.597656 119.84375 -32.203125 C 116.800781 -26.816406 113.25 -21.664062 109.1875 -16.75 C 105.125 -11.832031 100.550781 -7.8125 95.46875 -4.6875 C 90.394531 -1.5625 84.65625 0 78.25 0 C 70.601562 0 65.253906 -2.421875 62.203125 -7.265625 C 59.160156 -12.109375 57.640625 -17.804688 57.640625 -24.359375 C 57.640625 -30.296875 58.578125 -35.957031 60.453125 -41.34375 C 62.328125 -46.738281 64.160156 -51.660156 65.953125 -56.109375 C 67.753906 -60.566406 68.65625 -64.359375 68.65625 -67.484375 C 68.65625 -70.128906 67.832031 -72.15625 66.1875 -73.5625 C 64.550781 -74.96875 62.40625 -75.671875 59.75 -75.671875 C 55.21875 -75.671875 51.035156 -73.757812 47.203125 -69.9375 C 43.378906 -66.113281 40.296875 -61.15625 37.953125 -55.0625 C 35.609375 -48.96875 34.4375 -42.40625 34.4375 -35.375 L 34.4375 -24.828125 C 34.4375 -20.929688 33.96875 -17.066406 33.03125 -13.234375 C 32.09375 -9.410156 30.296875 -6.25 27.640625 -3.75 C 24.984375 -1.25 21.082031 0 15.9375 0 Z M 15.9375 0 "/></g></g></g><g fill="#ffffff" fill-opacity="1"><g transform="translate(217.134374, 270.644187)"><g><path d="M 47.09375 -126.75 C 41.46875 -126.75 36.625 -127.957031 32.5625 -130.375 C 28.5 -132.800781 26.46875 -137.140625 26.46875 -143.390625 C 26.46875 -151.671875 28.769531 -157.332031 33.375 -160.375 C 37.988281 -163.414062 43.5 -164.9375 49.90625 -164.9375 C 55.84375 -164.9375 60.878906 -163.609375 65.015625 -160.953125 C 69.148438 -158.304688 70.90625 -153.3125 70.28125 -145.96875 C 69.664062 -138.78125 67.171875 -133.78125 62.796875 -130.96875 C 58.421875 -128.15625 53.1875 -126.75 47.09375 -126.75 Z M 21.09375 0 C 13.28125 0 7.734375 -2.847656 4.453125 -8.546875 C 1.171875 -14.253906 -0.46875 -21.164062 -0.46875 -29.28125 C -0.46875 -34.75 0.078125 -40.53125 1.171875 -46.625 C 2.265625 -52.71875 3.671875 -58.578125 5.390625 -64.203125 C 10.859375 -81.222656 16.164062 -94.300781 21.3125 -103.4375 C 26.46875 -112.570312 32.40625 -117.140625 39.125 -117.140625 C 44.4375 -117.140625 47.09375 -113.628906 47.09375 -106.609375 C 47.09375 -101.921875 46.191406 -97.113281 44.390625 -92.1875 C 42.597656 -87.269531 40.84375 -82.425781 39.125 -77.65625 C 37.40625 -72.894531 36.546875 -68.410156 36.546875 -64.203125 C 36.546875 -60.296875 37.519531 -57.363281 39.46875 -55.40625 C 41.425781 -53.457031 43.96875 -52.484375 47.09375 -52.484375 C 50.6875 -52.484375 53.691406 -53.578125 56.109375 -55.765625 C 58.535156 -57.953125 60.921875 -60.765625 63.265625 -64.203125 C 64.515625 -66.078125 66.113281 -66.78125 68.0625 -66.3125 C 70.007812 -65.84375 71.644531 -64.785156 72.96875 -63.140625 C 74.300781 -61.503906 74.578125 -59.984375 73.796875 -58.578125 C 72.234375 -56.078125 70.398438 -52.484375 68.296875 -47.796875 C 66.191406 -43.109375 63.65625 -38.03125 60.6875 -32.5625 C 57.71875 -27.09375 54.316406 -21.898438 50.484375 -16.984375 C 46.660156 -12.066406 42.328125 -8.003906 37.484375 -4.796875 C 32.640625 -1.597656 27.175781 0 21.09375 0 Z M 21.09375 0 "/></g></g></g><g fill="#ffffff" fill-opacity="1"><g transform="translate(274.770226, 270.644187)"><g><path d="M 96.296875 -64.203125 C 97.546875 -66.078125 99.144531 -66.738281 101.09375 -66.1875 C 103.050781 -65.644531 104.691406 -64.59375 106.015625 -63.03125 C 107.347656 -61.46875 107.625 -59.90625 106.84375 -58.34375 C 105.59375 -55.6875 103.753906 -51.972656 101.328125 -47.203125 C 98.910156 -42.441406 95.863281 -37.363281 92.1875 -31.96875 C 88.519531 -26.582031 84.066406 -21.46875 78.828125 -16.625 C 73.597656 -11.789062 67.585938 -7.847656 60.796875 -4.796875 C 54.003906 -1.753906 46.234375 -0.234375 37.484375 -0.234375 C 27.179688 -0.234375 19.019531 -2.421875 13 -6.796875 C 6.988281 -11.171875 2.890625 -16.710938 0.703125 -23.421875 C -1.484375 -30.140625 -2.109375 -37.171875 -1.171875 -44.515625 C -0.234375 -51.859375 1.953125 -58.421875 5.390625 -64.203125 L 6.328125 -65.609375 C 10.546875 -71.222656 14.722656 -77.347656 18.859375 -83.984375 C 22.992188 -90.628906 27.25 -96.878906 31.625 -102.734375 C 36 -108.597656 40.53125 -113.441406 45.21875 -117.265625 C 49.90625 -121.085938 54.75 -123 59.75 -123 C 67.082031 -123 72.503906 -121.28125 76.015625 -117.84375 C 79.535156 -114.414062 81.21875 -110.828125 81.0625 -107.078125 C 81.0625 -105.203125 80.238281 -103.640625 78.59375 -102.390625 C 76.957031 -101.140625 75.007812 -100.003906 72.75 -98.984375 C 70.488281 -97.972656 68.5 -96.722656 66.78125 -95.234375 C 65.0625 -93.753906 64.203125 -91.84375 64.203125 -89.5 C 64.203125 -88.09375 65.289062 -85.28125 67.46875 -81.0625 C 69.65625 -76.84375 72 -72.117188 74.5 -66.890625 C 77 -61.660156 78.71875 -56.625 79.65625 -51.78125 C 83.25 -51.9375 86.332031 -53.1875 88.90625 -55.53125 C 91.488281 -57.875 93.953125 -60.765625 96.296875 -64.203125 Z M 29.046875 -48.5 C 34.203125 -48.5 38.1875 -50.140625 41 -53.421875 C 43.8125 -56.703125 45.21875 -60.765625 45.21875 -65.609375 C 45.21875 -68.421875 44.785156 -71.304688 43.921875 -74.265625 C 43.066406 -77.234375 41.78125 -80.28125 40.0625 -83.40625 C 38.5 -86.53125 36.625 -86.53125 34.4375 -83.40625 C 31.46875 -79.03125 28.304688 -74.617188 24.953125 -70.171875 C 21.597656 -65.722656 18.59375 -61.78125 15.9375 -58.34375 C 15.9375 -55.53125 17.144531 -53.1875 19.5625 -51.3125 C 21.988281 -49.4375 25.148438 -48.5 29.046875 -48.5 Z M 29.046875 -48.5 "/></g></g></g></svg>