<?xml version="1.0" standalone="no"?>
<!DOCTYPE svg PUBLIC "-//W3C//DTD SVG 20010904//EN"
 "http://www.w3.org/TR/2001/REC-SVG-20010904/DTD/svg10.dtd">
<svg version="1.0" xmlns="http://www.w3.org/2000/svg"
 width="700.000000pt" height="700.000000pt" viewBox="0 0 700.000000 700.000000"
 preserveAspectRatio="xMidYMid meet">
<metadata>
Created by potrace 1.14, written by Peter Selinger 2001-2017
</metadata>
<g transform="translate(0.000000,700.000000) scale(0.100000,-0.100000)"
fill="#000000" stroke="none">
<path d="M2835 5130 c-169 -38 -330 -274 -501 -735 -25 -66 -48 -127 -51 -135
-9 -24 -77 -214 -122 -345 -23 -66 -46 -129 -51 -140 -9 -22 -41 -113 -95
-270 -93 -272 -100 -286 -205 -399 -114 -123 -309 -234 -463 -265 -98 -20
-112 -21 -182 -22 -229 0 -402 106 -467 289 -16 42 -21 82 -21 152 0 144 36
250 114 335 50 54 113 80 195 79 111 -1 164 -55 164 -166 0 -51 -5 -64 -44
-121 -53 -77 -61 -99 -45 -129 69 -130 345 -121 491 16 104 97 147 198 155
361 8 177 -36 302 -149 417 -105 108 -235 149 -458 144 -160 -3 -237 -20 -365
-81 -256 -121 -457 -351 -594 -680 -24 -59 -66 -204 -75 -259 -4 -22 -9 -48
-11 -60 -13 -56 -21 -293 -11 -341 2 -11 7 -40 10 -65 14 -106 72 -262 130
-350 16 -25 59 -74 95 -110 127 -126 286 -183 501 -181 146 1 251 21 380 74
182 74 300 157 481 338 l137 136 0 -106 c-1 -204 63 -355 173 -412 79 -40 238
-40 316 0 48 24 107 88 128 138 36 86 47 166 51 373 2 113 8 237 15 275 39
235 180 465 325 532 69 31 164 36 209 9 56 -33 70 -63 69 -146 -1 -67 -9 -95
-69 -255 -103 -276 -116 -329 -121 -475 -5 -176 28 -295 106 -384 110 -125
368 -134 569 -19 123 70 241 187 360 357 36 53 41 56 41 33 0 -15 1 -29 1 -32
1 -2 7 -35 14 -72 49 -253 163 -363 381 -364 133 -1 226 33 351 127 88 68 156
141 241 263 l65 94 19 -58 c68 -216 271 -381 508 -413 85 -11 319 -7 380 7
339 78 613 291 838 651 62 99 205 371 215 409 13 50 -92 139 -148 125 -14 -3
-41 -26 -59 -49 -106 -140 -177 -197 -259 -210 -35 -6 -36 -5 -47 37 -31 122
-48 163 -178 426 -84 169 -99 213 -87 259 9 38 69 92 145 131 97 50 128 74
145 109 52 109 -82 287 -241 318 -124 24 -220 14 -309 -32 -82 -42 -198 -148
-294 -268 -31 -38 -60 -75 -66 -82 -14 -16 -135 -195 -269 -398 -252 -384
-310 -452 -400 -478 -168 -47 -280 45 -270 224 5 87 23 156 93 353 78 218 100
312 95 409 -5 123 -51 177 -149 176 -98 -1 -198 -66 -275 -179 -83 -122 -202
-389 -290 -654 -32 -96 -54 -143 -87 -187 -90 -120 -163 -163 -266 -158 -99 4
-158 54 -175 147 -18 100 -7 162 66 356 l56 151 0 125 c1 126 1 126 -36 201
-70 141 -167 197 -341 197 -103 0 -172 -15 -264 -60 -66 -31 -176 -110 -265
-189 -49 -43 -92 -54 -110 -28 -14 22 0 114 31 209 16 47 87 200 158 340 153
302 194 408 196 500 2 76 -18 117 -67 144 -35 19 -114 27 -161 16z m2893
-1527 c40 -60 79 -159 95 -248 44 -239 -83 -411 -297 -401 -119 5 -206 61
-222 143 -5 26 7 46 103 174 117 156 174 234 211 289 28 42 59 70 77 70 8 0
22 -12 33 -27z"/>
<path d="M4857 5074 c-1 -1 -24 -3 -52 -5 -103 -6 -228 -59 -282 -119 -54 -61
-75 -125 -79 -244 -4 -133 28 -212 105 -260 167 -103 448 -86 586 36 119 104
143 388 42 488 -37 37 -63 51 -132 75 -43 14 -181 36 -188 29z"/>
</g>
</svg>
