<svg width="512" height="265" viewBox="0 0 512 265" fill="none" xmlns="http://www.w3.org/2000/svg">
<path d="M51.1008 209.37C39.4758 209.37 29.981 206.761 22.6216 201.537C15.257 196.303 9.78829 189.37 6.20496 180.745C2.62162 172.12 0.829956 162.777 0.829956 152.704C0.829956 142.428 2.52266 132.11 5.91329 121.745C9.29871 111.37 14.1893 101.829 20.58 93.1204C26.981 84.4017 34.731 77.3704 43.83 72.0371C52.9393 66.7038 63.2102 64.0371 74.6425 64.0371C88.6008 64.0371 98.7727 67.6309 105.163 74.8079C111.564 81.9746 114.767 90.3027 114.767 99.7871C114.767 108.12 113.163 114.86 109.955 119.995C106.757 125.136 102.882 128.87 98.33 131.204C93.7883 133.527 89.382 134.683 85.1216 134.683C80.08 134.683 76.2935 133.808 73.7675 132.058C71.2518 130.308 69.9966 128.469 69.9966 126.537C69.9966 124.787 70.5279 123.339 71.6008 122.183C72.6685 121.016 73.7779 119.568 74.9341 117.829C76.1008 116.079 76.6841 113.464 76.6841 109.975C76.6841 107.256 75.8091 104.881 74.0591 102.85C72.3195 100.808 69.2258 99.7871 64.7675 99.7871C58.1841 99.7871 53.1008 102.652 49.5175 108.37C45.9341 114.094 44.1425 120.636 44.1425 127.995C44.1425 135.745 46.1685 142.048 50.2258 146.891C54.2935 151.725 59.5695 155.016 66.0591 156.766C72.5591 158.506 79.5852 158.699 87.1425 157.35C94.6945 155.99 102.153 153.032 109.517 148.475C116.892 143.923 123.288 137.673 128.705 129.725C130.257 127.407 132.294 126.589 134.809 127.266C137.335 127.949 139.419 129.261 141.059 131.204C142.71 133.136 142.955 135.068 141.788 136.995C128.997 160.636 114.945 178.61 99.6425 190.912C84.3352 203.219 68.1529 209.37 51.1008 209.37Z" fill="white"/>
<path d="M141.785 209.37C133.452 209.37 127.582 206.516 124.181 200.808C120.796 195.089 119.098 187.964 119.098 179.433C119.098 172.074 120.025 164.032 121.869 155.308C123.712 146.589 126.087 138.058 128.994 129.725C138.869 101.449 147.244 77.7194 154.119 58.5371C161.004 39.3444 167.645 24.86 174.035 15.0788C180.436 5.28711 187.514 0.391281 195.264 0.391281C201.264 0.391281 204.983 2.62045 206.431 7.07878C207.889 11.5371 206.483 18.4225 202.223 27.7246C198.54 36.0579 194.52 44.1517 190.16 51.9954C185.811 59.8444 182.764 67.1569 181.014 73.9329C179.457 79.933 179.603 83.3236 181.452 84.0996C183.296 84.8809 185.77 83.7194 188.869 80.6205C194.285 75.3861 199.895 71.3184 205.702 68.4121C211.52 65.4954 217.629 64.0371 224.035 64.0371C232.952 64.0371 239.535 66.6569 243.785 71.8913C248.046 77.1309 250.181 83.4277 250.181 90.7871C250.181 95.8288 249.4 100.433 247.848 104.6C246.306 108.766 244.754 112.839 243.202 116.808C241.66 120.782 240.889 125.183 240.889 130.016C240.889 139.714 245.348 144.558 254.264 144.558C258.723 144.558 262.452 143.157 265.452 140.35C268.452 137.532 271.4 133.99 274.306 129.725C275.858 127.407 277.895 126.589 280.41 127.266C282.936 127.949 285.02 129.261 286.66 131.204C288.311 133.136 288.556 135.068 287.389 136.995C285.457 140.094 283.129 144.6 280.41 150.516C277.702 156.423 274.457 162.719 270.681 169.412C266.9 176.094 262.494 182.49 257.452 188.6C252.41 194.699 246.744 199.683 240.452 203.558C234.16 207.433 227.04 209.37 219.098 209.37C209.598 209.37 202.957 206.37 199.181 200.37C195.4 194.36 193.514 187.282 193.514 179.141C193.514 171.782 194.671 164.761 196.994 158.079C199.327 151.386 201.603 145.282 203.827 139.766C206.061 134.24 207.181 129.537 207.181 125.662C207.181 122.37 206.16 119.86 204.119 118.12C202.087 116.37 199.431 115.495 196.139 115.495C190.514 115.495 185.327 117.87 180.577 122.62C175.827 127.36 171.999 133.511 169.098 141.079C166.191 148.636 164.744 156.766 164.744 165.475V178.558C164.744 183.407 164.16 188.204 162.994 192.954C161.827 197.704 159.598 201.631 156.306 204.725C153.014 207.824 148.171 209.37 141.785 209.37Z" fill="white"/>
<path d="M326.031 52.1413C319.057 52.1413 313.051 50.6413 308.01 47.6413C302.968 44.6309 300.447 39.2455 300.447 31.4955C300.447 21.235 303.307 14.2142 309.031 10.433C314.749 6.64129 321.583 4.74545 329.531 4.74545C336.89 4.74545 343.135 6.4017 348.26 9.70379C353.395 12.9955 355.577 19.1986 354.801 28.308C354.02 37.2142 350.916 43.4121 345.489 46.9121C340.072 50.4017 333.583 52.1413 326.031 52.1413ZM293.781 209.37C284.083 209.37 277.202 205.839 273.135 198.766C269.062 191.699 267.031 183.12 267.031 173.037C267.031 166.261 267.702 159.094 269.051 151.537C270.411 143.985 272.161 136.714 274.301 129.725C281.077 108.615 287.661 92.3913 294.051 81.058C300.452 69.7142 307.822 64.0371 316.156 64.0371C322.739 64.0371 326.031 68.4017 326.031 77.1205C326.031 82.9434 324.911 88.9069 322.676 95.0163C320.452 101.115 318.27 107.12 316.135 113.037C314.01 118.943 312.947 124.506 312.947 129.725C312.947 134.574 314.156 138.214 316.572 140.641C318.999 143.058 322.156 144.266 326.031 144.266C330.489 144.266 334.218 142.912 337.218 140.204C340.228 137.485 343.187 133.99 346.093 129.725C347.635 127.407 349.614 126.537 352.031 127.12C354.458 127.704 356.494 129.016 358.135 131.058C359.786 133.089 360.135 134.969 359.176 136.704C357.228 139.803 354.947 144.261 352.322 150.079C349.708 155.902 346.562 162.199 342.885 168.975C339.202 175.756 334.989 182.199 330.239 188.308C325.499 194.407 320.124 199.443 314.114 203.412C308.114 207.386 301.333 209.37 293.781 209.37Z" fill="white"/>
<path d="M458.564 129.725C460.106 127.407 462.085 126.589 464.502 127.266C466.929 127.949 468.965 129.261 470.606 131.204C472.257 133.136 472.606 135.068 471.648 136.995C470.09 140.287 467.814 144.891 464.814 150.808C461.814 156.714 458.033 163.011 453.481 169.704C448.924 176.386 443.398 182.735 436.898 188.745C430.408 194.745 422.95 199.636 414.523 203.412C406.09 207.193 396.45 209.079 385.606 209.079C372.814 209.079 362.689 206.37 355.231 200.954C347.773 195.527 342.689 188.641 339.981 180.308C337.273 171.975 336.502 163.261 337.668 154.162C338.825 145.053 341.528 136.907 345.793 129.725L346.96 127.995C352.179 121.011 357.361 113.407 362.502 105.183C367.637 96.9486 372.918 89.1986 378.335 81.9329C383.762 74.6569 389.382 68.6517 395.189 63.9121C401.007 59.1621 407.023 56.7871 413.231 56.7871C422.325 56.7871 429.054 58.9225 433.418 63.1829C437.778 67.4486 439.861 71.9017 439.668 76.5371C439.668 78.8704 438.648 80.8184 436.606 82.3704C434.575 83.9121 432.153 85.3184 429.335 86.5788C426.528 87.8288 424.064 89.3809 421.939 91.2246C419.814 93.0579 418.752 95.4329 418.752 98.3496C418.752 100.089 420.106 103.574 422.814 108.808C425.523 114.048 428.424 119.907 431.523 126.391C434.632 132.881 436.762 139.131 437.918 145.141C442.377 144.949 446.2 143.402 449.398 140.495C452.606 137.579 455.658 133.99 458.564 129.725ZM375.148 149.204C381.533 149.204 386.47 147.173 389.96 143.1C393.46 139.032 395.21 133.995 395.21 127.995C395.21 124.511 394.674 120.928 393.606 117.245C392.533 113.553 390.939 109.766 388.814 105.891C386.866 102.016 384.543 102.016 381.835 105.891C378.153 111.324 374.231 116.803 370.064 122.329C365.898 127.844 362.168 132.735 358.877 136.995C358.877 140.485 360.377 143.391 363.377 145.725C366.377 148.048 370.299 149.204 375.148 149.204Z" fill="white"/>
<path d="M377.792 234.552C377.693 234.526 377.604 234.505 377.521 234.49C377.438 234.479 377.344 234.458 377.25 234.427L372.271 242.24C371.698 243.104 371.125 243.958 370.542 244.802C369.969 245.635 369.381 246.49 368.771 247.365C368.172 248.271 367.568 249.167 366.959 250.052C366.344 250.927 365.75 251.833 365.167 252.76C364.542 253.677 363.646 254.031 362.479 253.823C361.948 253.708 361.552 253.479 361.292 253.115C361.042 252.755 361.032 252.302 361.271 251.76C361.631 250.969 362.011 250.172 362.417 249.365C362.818 248.562 363.261 247.781 363.75 247.031C366.61 242.63 369.552 238.271 372.584 233.948C373.5 232.63 374.427 231.333 375.375 230.052C376.318 228.76 377.261 227.479 378.209 226.198C378.386 225.922 378.61 225.687 378.875 225.49C379.136 225.281 379.401 225.052 379.667 224.802C379.875 224.802 380.063 224.818 380.229 224.844C380.407 224.875 380.589 224.922 380.771 224.99C381.448 225.229 381.938 225.448 382.229 225.656C382.532 225.854 382.714 226.135 382.771 226.51C382.839 226.875 382.844 227.401 382.792 228.094C382.594 230.333 382.375 232.573 382.125 234.823C381.886 237.062 381.651 239.297 381.417 241.531C381.36 242.104 381.282 242.672 381.188 243.24C381.104 243.812 381.032 244.375 380.979 244.927C380.948 245.094 380.964 245.276 381.021 245.469C381.073 245.651 381.125 245.885 381.167 246.177C381.86 245.802 382.479 245.396 383.021 244.948C383.573 244.505 384.115 244.068 384.646 243.635C386.615 242.094 388.573 240.552 390.521 239.01C392.479 237.458 394.438 235.922 396.396 234.406C396.756 234.13 397.151 233.865 397.584 233.615C398.011 233.365 398.396 233.094 398.729 232.802C399.563 232.167 400.381 231.964 401.188 232.198C401.99 232.422 402.771 232.693 403.521 233.01C403.854 233.125 404.068 233.354 404.167 233.698C404.276 234.047 404.292 234.401 404.209 234.76C404.084 235.219 403.86 235.734 403.542 236.302C403.011 237.26 402.479 238.208 401.938 239.135C401.407 240.052 400.881 240.984 400.354 241.927C399.563 243.318 398.761 244.708 397.959 246.094C397.167 247.469 396.417 248.88 395.709 250.323C394.875 252.073 393.948 253.766 392.938 255.406C391.922 257.042 390.865 258.661 389.771 260.26C389.365 260.844 388.834 261.354 388.167 261.802C387.386 262.312 386.604 262.26 385.813 261.635C385.573 261.453 385.381 261.245 385.229 261.01C385.089 260.786 385.063 260.516 385.146 260.198C385.229 259.849 385.318 259.49 385.417 259.115C385.511 258.74 385.646 258.406 385.813 258.115C386.589 256.74 387.375 255.385 388.167 254.052C388.969 252.734 389.761 251.406 390.542 250.073C391.219 248.854 391.907 247.625 392.604 246.385C393.313 245.151 394.011 243.922 394.709 242.698C394.959 242.229 395.229 241.771 395.521 241.323C395.823 240.865 396.177 240.292 396.584 239.594C396.136 239.833 395.776 240 395.5 240.094C395.219 240.193 394.985 240.318 394.792 240.469C393.943 241.208 393.104 241.958 392.271 242.719C391.438 243.484 390.584 244.234 389.709 244.969C388.667 245.833 387.61 246.693 386.542 247.552C385.485 248.417 384.417 249.271 383.334 250.115C382.667 250.573 381.959 251.021 381.209 251.448C380.469 251.88 379.719 252.297 378.959 252.698C378.302 253.021 377.714 253.047 377.188 252.781C376.672 252.505 376.344 252.026 376.209 251.344C376.084 250.708 375.99 250.047 375.938 249.365C375.881 248.687 375.896 248.031 375.979 247.406C376.146 245.854 376.354 244.312 376.604 242.781C376.865 241.24 377.104 239.708 377.313 238.177L377.792 234.552Z" fill="white"/>
<path d="M400.534 251.845C400.951 250.678 401.514 249.605 402.222 248.615C402.93 247.615 403.784 246.673 404.784 245.782C404.144 243.897 404.003 242.152 404.368 240.553C404.727 238.944 405.462 237.444 406.576 236.053C407.337 235.069 408.232 234.24 409.264 233.574C410.305 232.897 411.394 232.36 412.534 231.97C413.477 231.636 414.441 231.402 415.43 231.261C416.415 231.126 417.409 231.095 418.409 231.178C419.337 231.261 420.159 231.511 420.868 231.928C421.587 232.345 422.212 232.907 422.743 233.615C422.894 233.813 423.019 234.048 423.118 234.324C423.227 234.589 423.305 234.845 423.347 235.095C423.498 235.928 423.191 236.563 422.43 236.99C422.081 237.188 421.753 237.24 421.451 237.157C421.144 237.063 420.857 236.923 420.597 236.74C420.389 236.605 420.201 236.449 420.034 236.282C419.878 236.105 419.722 235.928 419.555 235.761C419.107 235.194 418.581 234.824 417.972 234.657C417.373 234.48 416.722 234.47 416.014 234.636C414.441 234.944 413.014 235.485 411.722 236.261C410.441 237.027 409.42 238.178 408.659 239.72C408.394 240.235 408.212 240.777 408.118 241.345C408.034 241.902 408.107 242.506 408.347 243.157C408.639 243.147 408.92 243.136 409.201 243.136C409.477 243.136 409.727 243.105 409.951 243.032C411.784 242.532 413.649 242.365 415.555 242.532C415.899 242.574 416.253 242.652 416.618 242.761C416.993 242.86 417.337 243.006 417.659 243.199C418.269 243.522 418.691 243.98 418.93 244.574C419.165 245.157 419.191 245.756 419.014 246.365C418.847 246.964 418.472 247.459 417.889 247.845C417.081 248.345 416.243 248.761 415.368 249.095C414.503 249.417 413.576 249.506 412.576 249.365C411.727 249.23 410.878 249.089 410.034 248.949C409.201 248.798 408.347 248.657 407.472 248.532C406.555 249.157 405.826 249.97 405.284 250.97C404.743 251.959 404.316 252.985 404.014 254.053C403.639 255.345 403.639 256.506 404.014 257.532C404.389 258.563 405.014 259.381 405.889 259.99C406.774 260.589 407.748 260.902 408.805 260.928C410.331 260.928 411.628 260.652 412.701 260.095C413.769 259.542 414.712 258.694 415.534 257.553C415.67 257.261 415.847 256.99 416.055 256.74C416.264 256.48 416.482 256.235 416.722 256.011C416.873 255.845 417.06 255.73 417.284 255.657C417.519 255.589 417.748 255.532 417.972 255.49C418.316 255.438 418.618 255.532 418.868 255.782C419.118 256.022 419.253 256.313 419.284 256.657C419.352 257.157 419.337 257.667 419.243 258.178C419.159 258.678 418.951 259.157 418.618 259.615C417.628 261.022 416.503 262.199 415.243 263.157C413.993 264.115 412.456 264.647 410.639 264.74C410.123 264.772 409.607 264.782 409.097 264.782C408.581 264.772 408.066 264.761 407.555 264.761C406.123 264.777 404.899 264.438 403.889 263.74C402.889 263.032 402.014 262.131 401.264 261.032C400.274 259.563 399.774 258.053 399.764 256.511C399.748 254.959 400.003 253.402 400.534 251.845Z" fill="white"/>
<path d="M424.554 257.109C424.57 256.651 424.721 256.265 425.012 255.942C425.304 255.625 425.632 255.328 425.991 255.046C426.533 255.104 426.981 255.229 427.325 255.421C427.684 255.604 428.023 255.875 428.346 256.234C429.497 257.541 430.7 258.328 431.95 258.588C433.2 258.854 434.596 258.625 436.137 257.901C437.148 257.432 437.934 256.729 438.491 255.796C439.044 254.869 439.351 253.859 439.408 252.776C439.46 251.682 439.2 250.661 438.616 249.713C438.059 248.786 437.372 248.015 436.554 247.401C435.747 246.791 434.846 246.291 433.846 245.901C433.137 245.64 432.429 245.369 431.721 245.088C431.012 244.796 430.314 244.52 429.637 244.255C427.872 243.505 426.585 242.437 425.762 241.046C424.945 239.645 424.528 238.13 424.512 236.505C424.486 234.869 424.825 233.312 425.533 231.838C426.241 230.354 427.273 229.145 428.616 228.213C430.184 227.104 431.794 226.437 433.45 226.213C435.116 225.994 436.866 226.354 438.7 227.296C439.533 227.755 440.163 228.333 440.596 229.026C441.038 229.723 441.392 230.479 441.658 231.296C441.809 231.671 441.788 232.026 441.596 232.359C441.413 232.682 441.169 232.963 440.866 233.213C440.335 233.604 439.809 233.625 439.283 233.276C438.95 233.109 438.616 232.916 438.283 232.692C437.95 232.458 437.679 232.208 437.471 231.942C436.898 231.125 436.163 230.625 435.262 230.442C434.372 230.25 433.471 230.291 432.554 230.567C431.637 230.848 430.851 231.286 430.2 231.88C429.419 232.578 428.934 233.442 428.741 234.484C428.559 235.515 428.642 236.515 428.991 237.484C429.335 238.458 429.955 239.244 430.846 239.838C431.346 240.119 431.887 240.375 432.471 240.609C433.054 240.848 433.622 241.078 434.179 241.296C435.179 241.687 436.163 242.104 437.137 242.546C438.122 242.979 439.033 243.588 439.866 244.38C441.517 245.838 442.669 247.484 443.325 249.317C443.976 251.14 444.054 253.119 443.554 255.255C443.137 256.979 442.392 258.463 441.325 259.713C440.267 260.963 438.825 261.854 436.991 262.38C436.642 262.479 436.283 262.583 435.908 262.692C435.544 262.807 435.189 262.895 434.846 262.963C433.023 263.421 431.273 263.338 429.596 262.713C427.913 262.078 426.533 260.984 425.45 259.442C425.2 259.083 424.991 258.723 424.825 258.359C424.648 257.984 424.554 257.567 424.554 257.109Z" fill="white"/>
<path d="M452.033 255.56C451.424 255.601 450.924 255.153 450.533 254.205C450.424 253.997 450.325 253.705 450.241 253.33C449.814 251.362 449.366 249.388 448.908 247.414C448.45 245.429 448.012 243.45 447.595 241.476C447.168 239.518 446.773 237.549 446.408 235.56C446.033 233.575 445.627 231.591 445.179 229.601C445.043 228.841 444.887 228.07 444.72 227.289C444.543 226.497 444.361 225.721 444.179 224.955C444.137 224.705 444.095 224.471 444.054 224.247C444.002 224.013 443.981 223.768 443.991 223.518C443.991 223.159 444.137 222.81 444.429 222.476C444.72 222.133 445.007 221.935 445.283 221.893C445.658 221.81 446.023 221.888 446.366 222.122C446.715 222.362 446.95 222.659 447.075 223.018C447.34 223.799 447.569 224.575 447.762 225.351C447.944 226.117 448.095 226.903 448.22 227.705C448.887 231.596 449.736 235.445 450.762 239.247C451.793 243.039 452.642 246.888 453.325 250.789L453.7 253.018C453.726 253.143 453.731 253.284 453.72 253.435C453.705 253.591 453.689 253.737 453.679 253.872C453.648 254.289 453.476 254.664 453.158 254.997C452.835 255.32 452.46 255.508 452.033 255.56Z" fill="white"/>
<path d="M456.345 222.326C456.194 221.993 456.033 221.639 455.866 221.264C455.689 220.878 455.486 220.405 455.262 219.847C454.595 220.321 454.001 220.743 453.47 221.118C452.944 221.483 452.428 221.837 451.928 222.181C451.527 222.488 451.126 222.8 450.72 223.118C450.303 223.441 449.882 223.753 449.449 224.056C448.965 224.347 448.491 224.358 448.033 224.076C447.574 223.785 447.335 223.347 447.303 222.764C447.251 222.071 447.491 221.503 448.033 221.056C448.548 220.556 449.069 220.056 449.595 219.556C450.111 219.056 450.658 218.634 451.241 218.285C452.465 217.55 453.585 216.696 454.595 215.722C455.611 214.753 456.658 213.826 457.741 212.951C458.298 212.425 458.876 211.931 459.47 211.472C460.069 211.014 460.673 210.571 461.283 210.139C461.882 209.753 462.486 209.535 463.095 209.493C463.637 209.384 464.085 209.566 464.449 210.035C464.824 210.509 464.892 211.003 464.658 211.514C464.501 211.878 464.288 212.222 464.012 212.556C463.746 212.889 463.46 213.196 463.137 213.472C462.543 214.03 461.928 214.55 461.303 215.035C460.678 215.524 460.064 216.035 459.449 216.576C459.257 216.733 459.069 216.931 458.887 217.181C458.694 217.431 458.481 217.696 458.241 217.972C458.689 218.92 459.137 219.868 459.595 220.826C460.043 221.785 460.501 222.764 460.97 223.764C462.402 226.722 463.835 229.681 465.283 232.639C466.725 235.587 468.158 238.55 469.574 241.535C469.767 241.868 469.897 242.243 469.97 242.66C470.053 243.076 470.1 243.509 470.116 243.951C470.126 244.66 469.751 245.149 468.991 245.41C468.616 245.535 468.283 245.545 467.991 245.431C467.699 245.321 467.449 245.139 467.241 244.889C466.835 244.389 466.46 243.837 466.116 243.222C465.434 241.863 464.741 240.483 464.033 239.076C463.324 237.675 462.647 236.295 461.991 234.931C461.007 232.821 460.064 230.712 459.158 228.597C458.241 226.488 457.303 224.399 456.345 222.326Z" fill="white"/>
<path d="M471.847 196.643C474.305 196.424 476.597 196.779 478.722 197.706C480.836 198.622 482.966 199.841 485.117 201.352C487.742 203.534 489.789 206.112 491.263 209.081C492.732 212.039 493.534 215.372 493.659 219.081C493.659 220.164 493.524 221.195 493.263 222.164C492.998 223.138 492.498 224.039 491.763 224.872C490.998 225.721 490.159 226.445 489.242 227.039C488.326 227.638 487.274 228.039 486.097 228.247C484.331 228.513 482.649 228.487 481.034 228.164C479.409 227.846 477.847 227.247 476.347 226.372C472.638 224.279 469.805 221.643 467.847 218.477C465.878 215.299 464.696 211.612 464.305 207.414C464.253 206.747 464.253 206.091 464.305 205.435C464.347 204.768 464.404 204.112 464.472 203.456C464.628 202.362 465.086 201.31 465.847 200.31C466.612 199.31 467.534 198.471 468.617 197.789C469.69 197.112 470.763 196.727 471.847 196.643ZM468.742 211.935C469.607 213.924 470.649 215.763 471.867 217.456C473.076 219.154 474.576 220.57 476.367 221.706C477.716 222.846 479.133 223.659 480.617 224.143C482.091 224.617 483.67 224.716 485.347 224.435C486.513 224.242 487.498 223.784 488.305 223.06C489.024 222.393 489.477 221.664 489.659 220.872C489.836 220.07 489.914 219.237 489.888 218.372C489.664 215.888 488.94 213.56 487.722 211.393C487.097 210.201 486.31 209.112 485.367 208.122C484.42 207.122 483.508 206.102 482.617 205.06C481.451 203.758 480.154 202.768 478.722 202.102C477.279 201.424 475.737 200.888 474.097 200.497C473.795 200.456 473.466 200.424 473.117 200.393C472.774 200.367 472.44 200.352 472.117 200.352C471.591 200.383 471.091 200.497 470.617 200.706C470.149 200.904 469.763 201.237 469.472 201.706C468.972 202.456 468.555 203.242 468.222 204.06C467.878 204.883 467.711 205.747 467.722 206.664C467.737 207.555 467.826 208.445 467.992 209.331C468.159 210.221 468.409 211.091 468.742 211.935Z" fill="white"/>
<path d="M499.146 207.328C499.453 206.719 499.896 206.323 500.479 206.141C501.052 205.948 501.61 206.016 502.167 206.349C502.802 206.656 503.219 207.12 503.417 207.745C503.61 208.37 503.552 208.984 503.25 209.599C502.943 210.208 502.5 210.609 501.917 210.807C501.349 211.016 500.781 210.984 500.208 210.724C499.625 210.432 499.24 209.953 499.042 209.287C498.833 208.63 498.87 207.979 499.146 207.328Z" fill="white"/>
<path d="M483.77 184.63C485.135 186.312 486.703 187.645 488.479 188.63C490.244 189.604 492.104 190.359 494.062 190.9C495.677 191.166 497.218 191.192 498.687 190.984C500.145 190.775 501.541 190.234 502.874 189.359C503.348 189.025 503.729 188.64 504.02 188.192C504.312 187.749 504.583 187.255 504.833 186.713C505.515 185.203 505.744 183.775 505.52 182.442C505.286 181.109 504.635 179.833 503.562 178.609L501.604 176.255C501.453 176.062 501.291 175.88 501.124 175.713C500.947 175.536 500.786 175.369 500.645 175.213C500.036 174.395 499.994 173.713 500.52 173.171C501.078 172.63 501.765 172.578 502.583 173.005C503.739 173.661 504.749 174.437 505.624 175.338C506.484 176.244 507.239 177.244 507.895 178.338C509.104 180.421 509.593 182.484 509.374 184.525C509.15 186.557 508.484 188.515 507.374 190.4C506.593 191.692 505.562 192.703 504.27 193.421C502.968 194.13 501.578 194.609 500.104 194.859C496.895 195.307 493.869 195.078 491.02 194.171C488.161 193.255 485.541 191.744 483.166 189.63C482.166 188.713 481.229 187.713 480.354 186.63C479.479 185.546 478.703 184.421 478.02 183.255C477.26 182.02 476.703 180.687 476.354 179.255C475.994 177.812 475.927 176.354 476.145 174.88C476.52 172.338 477.604 170.411 479.395 169.088C481.177 167.77 483.427 167.374 486.145 167.9C487.677 168.234 489.119 168.765 490.479 169.484C491.843 170.208 493.072 171.171 494.166 172.38C494.307 172.562 494.447 172.749 494.583 172.942C494.708 173.124 494.833 173.317 494.958 173.525C495.281 174.041 495.249 174.567 494.874 175.109C494.656 175.374 494.374 175.562 494.041 175.671C493.708 175.77 493.39 175.749 493.083 175.609C492.666 175.416 492.26 175.192 491.854 174.942C491.437 174.682 491.036 174.437 490.645 174.213C490.036 173.869 489.432 173.515 488.833 173.15C488.239 172.775 487.624 172.453 486.999 172.171C485.906 171.63 484.697 171.432 483.374 171.567C482.197 171.723 481.244 172.187 480.52 172.963C479.802 173.729 479.437 174.713 479.437 175.921C479.427 176.755 479.562 177.557 479.854 178.317C480.145 179.067 480.479 179.786 480.854 180.463C481.302 181.187 481.76 181.895 482.229 182.588C482.703 183.286 483.218 183.963 483.77 184.63Z" fill="white"/>
<path d="M503.876 163.711C504.433 163.852 505.032 163.972 505.667 164.065C506.308 164.149 507.032 164.253 507.834 164.378C507.641 162.685 507.521 161.055 507.48 159.482C507.438 157.914 507.266 156.367 506.959 154.836C506.792 153.961 506.782 153.138 506.917 152.357C506.948 151.899 507.105 151.565 507.396 151.357C507.688 151.138 508.053 151.013 508.48 150.982C508.87 150.998 509.183 151.107 509.417 151.315C509.641 151.524 509.823 151.784 509.959 152.086C510.198 152.602 510.334 153.143 510.376 153.711C510.448 154.242 510.511 154.763 510.563 155.274C510.62 155.774 510.667 156.284 510.709 156.795L511.334 165.545C511.35 165.711 511.365 165.893 511.376 166.086C511.391 166.284 511.386 166.472 511.355 166.649C511.313 167.013 511.157 167.341 510.876 167.649C510.6 167.966 510.282 168.138 509.917 168.17C509.626 168.196 509.344 168.18 509.063 168.128C508.787 168.086 508.516 168.045 508.251 168.003C500.975 166.617 493.683 165.201 486.376 163.753C485.126 163.477 483.896 163.19 482.688 162.899C481.469 162.607 480.24 162.289 479.001 161.94C478.85 161.93 478.719 161.893 478.605 161.836C478.48 161.784 478.35 161.722 478.209 161.649C477.907 161.456 477.667 161.164 477.501 160.774C477.323 160.373 477.266 160.024 477.334 159.732C477.558 159.107 478.115 158.789 479.001 158.774C479.126 158.805 479.251 158.815 479.376 158.815C479.501 158.805 479.646 158.815 479.813 158.857C483.829 159.649 487.855 160.373 491.896 161.024C495.938 161.68 499.933 162.576 503.876 163.711Z" fill="white"/>
</svg>
